<?xml version="1.0" encoding="UTF-8"?>
<svg id="Layer_1" data-name="Layer 1" xmlns="http://www.w3.org/2000/svg" viewBox="0 0 1024.09 325.99">
  <defs>
    <style>
      .cls-1 {
        stroke-width: 0px;
      }
    </style>
  </defs>
  <path class="cls-1" d="M418.29,219.81h-25.47v43.86h-46.69V98.6h75.46c45.04,0,73.33,23.34,73.33,61.07,0,24.29-11.79,42.21-32.3,52.11l35.61,51.88h-49.99l-29.95-43.86ZM418.76,135.39h-25.94v48.34h25.94c19.34,0,29-8.96,29-24.05s-9.67-24.29-29-24.29Z"/>
  <path class="cls-1" d="M512.14,177.83c0-49.52,38.91-85.83,91.73-85.83s91.73,36.31,91.73,85.83-38.91,85.83-91.73,85.83-91.73-36.31-91.73-85.83ZM648.44,177.83c0-28.53-19.57-47.16-44.57-47.16s-44.57,18.63-44.57,47.16,19.57,47.16,44.57,47.16,44.57-18.63,44.57-47.16Z"/>
  <path class="cls-1" d="M881.89,95.3l-70.74,165.06h-45.98l-70.5-165.06h50.46l44.8,107.53,45.75-107.53h46.22Z"/>
  <path class="cls-1" d="M1024.09,224.28v36.08h-132.52V95.3h129.46v36.08h-83.24v27.82h73.33v34.9h-73.33v30.18h86.3Z"/>
  <g>
    <path class="cls-1" d="M390.26,12.76h-18.17l-10.93,63.05h-14.99l10.93-63.05h-17.91L341.43,0h51.07l-2.24,12.76Z"/>
    <path class="cls-1" d="M439.98,75.81h-14.89l5.62-32.44h-21.82l-5.62,32.44h-14.94L401.46,0h14.94l-5.31,30.67h21.82L438.26,0h14.89l-13.17,75.81Z"/>
    <path class="cls-1" d="M496.06,43.01h-23.12l-3.49,20.1h27.39l-2.24,12.7h-42.28L465.44,0h42.22l-2.24,12.76h-27.23l-3.12,17.91h23.17l-2.19,12.34Z"/>
  </g>
  <g>
    <path class="cls-1" d="M246.92,152.96v66.37c-9.39,9.33-18.34,15.54-26.71,19.69,0,0-.01,0-.02,0-.7-.13-1.39-.27-2.09-.39-.3-.05-.55-.16-.79-.36-2.06-1.74-4.44-2.68-7.12-2.91-.26-.02-.51-.03-.83-.06-.18-.38-.36-.74-.53-1.11-.33-.69-.81-1.26-1.48-1.63-.39-.22-.8-.41-1.21-.57-1.66-.67-3.32-1.34-4.98-1.99-3.4-1.34-6.76-2.75-10.23-3.91-.67-.22-1.3-.56-1.92-.9-.6-.33-1.11-.79-1.39-1.41-.28-.62-.76-1.01-1.32-1.31-.99-.53-1.97-1.05-2.98-1.54-1.91-.92-3.84-1.82-5.76-2.73-.36-.17-.71-.38-1-.53-.06-.17-.1-.24-.11-.31-.31-3.64-.62-7.28-.94-10.92-.17-1.93-.32-3.87-.54-5.79-.31-2.85-.67-5.7-1-8.55s-.7-5.7-.99-8.56c-.25-2.45-.49-4.9-.59-7.36-.34-8.61-.24-17.23-.15-25.85.13-11.75.35-23.5.53-35.25.03-2.16.08-4.33.16-6.49.1-2.65.25-5.29.37-7.94.01-.25,0-.5,0-.75-.83.7-1.12,1.58-1.3,2.5-.74,3.62-1.3,7.26-1.63,10.95-.22,2.49-.5,4.97-.75,7.46-.34,3.3-.7,6.6-1.02,9.9-.28,2.9-.54,5.79-.76,8.69-.29,3.79-.59,7.59-.78,11.38-.3,5.78-.36,11.56-.24,17.34.14,6.79.45,13.57,1.02,20.34.27,3.23.53,6.47.78,9.7.27,3.49.54,6.99.8,10.49.21,2.79.39,5.58.58,8.37.01.18,0,.37,0,.61-.29.25-.59.53-.9.79-2.89,2.36-5.77,4.72-8.67,7.07-.81.66-1.58,1.36-2.23,2.19-.7.88-1.55,1.61-2.49,2.23-1.12.75-2.34,1.3-3.6,1.78-2.17.83-4.45,1.24-6.7,1.73-.18.04-.38.05-.55,0-1.36-.47-2.64-.14-3.93.3-1.23.43-2.46.86-3.71,1.21-.99.28-1.89.69-2.71,1.28-.3.22-.62.42-.92.64-.5.37-1.03.69-1.58.96-28.45-13.9-46.52-42.25-46.52-78.28,0-53.03,37.21-87.65,89.8-87.65,29.36,0,51.11,11.26,71.61,37.08l55.22-49.96C271.9,22.62,228.34,0,170.92,0,71.44,0,0,66.18,0,159.53s71.44,159.53,169.17,159.53c44.7,0,98.54-3.14,154.45-56.09v-110.01h-76.7Z"/>
    <path class="cls-1" d="M157.03,163.51c-2.74-2.5-5.92-4.26-9.41-5.46-4.52-1.56-9.2-2.5-13.88-3.35-2.23-.41-4.5-.59-6.76-.87-.22-.03-.45-.02-.67,0-.16.01-.29.32-.19.45.09.11.19.23.31.3.7.42,1.4.86,2.12,1.23,4.05,2.07,7.99,4.33,11.83,6.76,6.31,3.99,12.25,8.48,18.11,13.1.58.46,1.14.96,1.69,1.46,1.97,1.8,3.64,3.83,4.82,6.25.07.15.11.36.41.39.02-.21.05-.42.05-.63-.04-2.96-.41-5.88-1.32-8.7-1.38-4.27-3.81-7.9-7.13-10.92Z"/>
    <path class="cls-1" d="M177.21,193.14c.75-.22,1.52-.4,2.24-.68,5.22-1.98,9.92-4.79,14.02-8.6,3.64-3.38,6.56-7.32,8.9-11.7.53-.99,1.06-1.97,1.65-2.92,1.1-1.77,2.51-3.23,4.37-4.23.09-.05.17-.12.26-.19-1.16-.2-2.25-.02-3.33.26-2.33.59-4.51,1.55-6.59,2.72-5.42,3.04-10.08,7.03-14.19,11.67-1.91,2.16-3.62,4.46-5.07,6.95-1.02,1.74-1.89,3.55-2.47,5.5-.11.38-.2.77-.31,1.23.23,0,.38.03.51,0Z"/>
    <path class="cls-1" d="M182.89,127.47c2.27-1.65,4.67-3.07,7.16-4.35,2.98-1.54,6.05-2.88,9.12-4.23.37-.16.74-.33,1.1-.49,0-.06-.02-.11-.02-.17-.11-.02-.22-.05-.32-.06-2.95-.08-5.89-.12-8.82.26-2.53.33-4.99.91-7.3,2.01-6.11,2.92-9.19,7.81-9.37,14.56,0,.21.03.41.04.62.42.02.48-.3.62-.49,2.19-2.96,4.82-5.49,7.79-7.65Z"/>
    <path class="cls-1" d="M176.01,188.7c.45-.49.69-1.04,1.02-1.53.35-.53.68-1.07,1.03-1.6.33-.5.67-.99,1.01-1.47.37-.52.74-1.03,1.12-1.53.36-.48.73-.95,1.1-1.41.4-.49.8-.98,1.22-1.46.39-.45.79-.89,1.19-1.33.43-.46.87-.92,1.31-1.37.42-.42.85-.84,1.28-1.25.43-.41.87-.81,1.32-1.21.47-.42.96-.83,1.44-1.24.46-.38.92-.75,1.4-1.12.5-.39,1.01-.76,1.52-1.13.48-.35.97-.69,1.47-1.02.53-.35,1.06-.7,1.59-1.03.5-.32,1.01-.63,1.53-.93.55-.32,1.11-.62,1.65-.94.5-.29,1.06-.5,1.63-.95-.74-.14-1.3.05-1.87.12-5.95.73-11.14,3.14-15.66,7.04-2.88,2.48-4.99,5.5-6.27,9.1-.68,1.92-.73,3.86-.27,5.83.03.13.13.25.23.43Z"/>
    <path class="cls-1" d="M165.82,131.82c.03-.11.06-.15.05-.18-.02-.15-.04-.29-.08-.43-.44-1.52-1.13-2.92-1.99-4.23-3.05-4.67-7.01-8.39-11.86-11.14-1.17-.66-2.4-1.21-3.7-1.56-.71-.19-1.43-.42-2.44-.29.26.19.34.26.43.31,1.19.7,2.05,1.72,2.73,2.9.35.61.69,1.24,1.03,1.86,3.06,5.55,7.48,9.6,13.34,12.04.65.27,1.33.48,2,.7.16.05.34.02.49.03Z"/>
    <path class="cls-1" d="M166.53,128.7c.34-1.27.22-2.51-.23-3.73-.82-2.22-2.15-4.08-3.93-5.62-2.96-2.56-6.4-4.04-10.29-4.48-.15-.02-.35-.12-.49.18,3.02,1.59,5.8,3.49,8.28,5.83,2.51,2.37,4.59,5.07,6.4,8.11.17-.19.24-.23.26-.29Z"/>
  </g>
  <g>
    <path class="cls-1" d="M357.43,294.33l3.47,25.43,12.31-25.43h5.02l-5.43,31.22h-3.84l2.15-12.35,2.38-11.6-11.99,23.95h-2.94l-3.69-24.45-1.82,12.48-2.06,11.97h-3.84l5.4-31.22h4.87Z"/>
    <path class="cls-1" d="M398.17,325.98c-2.6-.06-4.64-.99-6.1-2.79-1.47-1.8-2.22-4.27-2.26-7.4-.01-1.04.04-2.08.17-3.11l.9-5.83c.71-4.15,2.12-7.36,4.21-9.64,2.09-2.28,4.73-3.39,7.92-3.31,2.44.06,4.38.87,5.81,2.42s2.26,3.77,2.49,6.65l.06,1.16c0,1.06-.06,2.1-.19,3.13l-.92,5.94c-.73,4.16-2.13,7.35-4.2,9.56-2.07,2.21-4.7,3.29-7.89,3.22ZM407.37,307.18l.19-2.08c.14-2.5-.19-4.39-1.01-5.67-.81-1.28-2.07-1.95-3.77-2-2.13-.07-3.88.69-5.25,2.28-1.37,1.59-2.32,3.96-2.85,7.11l-.92,6.2-.15,1.74c-.14,2.44.2,4.34,1.02,5.67.82,1.34,2.08,2.03,3.79,2.09,4.19.13,6.84-2.79,7.96-8.77l1.01-6.56Z"/>
    <path class="cls-1" d="M442.74,325.56h-3.75l-8-24.23-4.2,24.23h-3.86l5.4-31.22h3.75l8.02,24.34,4.22-24.34h3.82l-5.4,31.22Z"/>
    <path class="cls-1" d="M480.84,297.7h-7.96l-4.83,27.86h-3.84l4.83-27.86h-7.96l.6-3.37h19.75l-.6,3.37Z"/>
    <path class="cls-1" d="M509.3,325.56h-3.84l2.51-14.43h-12.16l-2.51,14.43h-3.84l5.4-31.22h3.84l-2.34,13.42h12.18l2.32-13.42h3.86l-5.42,31.22Z"/>
    <path class="cls-1" d="M529.32,322.19h11.88l-.6,3.37h-15.72l5.4-31.22h3.86l-4.83,27.85Z"/>
    <path class="cls-1" d="M559.49,309.97l8.92-15.63h4.52l-12.16,19.81-1.97,11.41h-3.84l2.08-11.88-5.17-19.34h4.16l3.45,15.63Z"/>
    <path class="cls-1" d="M618.93,321.65c-.6.81-1.29,1.51-2.08,2.08-2.12,1.54-4.65,2.29-7.61,2.25-2.67-.03-4.77-.94-6.3-2.72-1.53-1.79-2.34-4.2-2.42-7.25-.03-1.04.02-2.09.15-3.13l.96-6.16c.66-4.12,1.97-7.28,3.92-9.48,2.06-2.3,4.78-3.42,8.17-3.35,2.69.09,4.74.97,6.17,2.66,1.42,1.69,2.1,4,2.05,6.95l-3.82-.02c0-2.12-.4-3.68-1.19-4.67-.79-.99-1.93-1.51-3.4-1.55-2.13-.1-3.87.61-5.23,2.13-1.36,1.52-2.3,3.93-2.83,7.25l-.99,6.55-.13,1.76v1.48c.23,4.06,1.91,6.12,5.04,6.18,1.13.03,2.14-.14,3.02-.5.89-.36,1.76-.88,2.64-1.55l1.31-7.19h-5.55l.6-3.37h9.33l-1.8,11.64Z"/>
    <path class="cls-1" d="M637.26,325.56h-3.84l5.43-31.22h3.84l-5.43,31.22Z"/>
    <path class="cls-1" d="M662.68,319.49l10.87-25.15h4.33l-14.32,31.22h-3.35l-4.52-31.22h4.05l2.94,25.15Z"/>
    <path class="cls-1" d="M689.77,325.56h-3.84l5.43-31.22h3.84l-5.43,31.22Z"/>
    <path class="cls-1" d="M725.26,325.56h-3.75l-8-24.23-4.2,24.23h-3.86l5.4-31.22h3.75l8.02,24.34,4.22-24.34h3.82l-5.4,31.22Z"/>
    <path class="cls-1" d="M760.65,321.65c-.6.81-1.29,1.51-2.08,2.08-2.12,1.54-4.65,2.29-7.61,2.25-2.67-.03-4.77-.94-6.3-2.72-1.53-1.79-2.34-4.2-2.42-7.25-.03-1.04.02-2.09.15-3.13l.96-6.16c.66-4.12,1.97-7.28,3.92-9.48,2.06-2.3,4.78-3.42,8.17-3.35,2.69.09,4.74.97,6.17,2.66,1.42,1.69,2.1,4,2.05,6.95l-3.82-.02c0-2.12-.4-3.68-1.19-4.67-.79-.99-1.93-1.51-3.4-1.55-2.13-.1-3.87.61-5.23,2.13-1.36,1.52-2.3,3.93-2.83,7.25l-.99,6.55-.13,1.76v1.48c.23,4.06,1.91,6.12,5.04,6.18,1.13.03,2.14-.14,3.02-.5.89-.36,1.76-.88,2.64-1.55l1.31-7.19h-5.55l.6-3.37h9.33l-1.8,11.64Z"/>
    <path class="cls-1" d="M799.7,313.35l-2.12,12.2h-3.84l5.4-31.22,9.41.02c2.56.09,4.53.99,5.92,2.72,1.39,1.73,1.96,3.94,1.72,6.64-.26,2.98-1.32,5.33-3.19,7.06-1.87,1.73-4.28,2.6-7.23,2.6l-6.07-.02ZM800.28,309.97l5.64.04c1.41,0,2.64-.37,3.69-1.11s1.81-1.79,2.3-3.16c.49-1.37.64-2.75.47-4.16-.14-1.16-.55-2.08-1.22-2.76-.67-.68-1.57-1.05-2.68-1.11l-6.07-.02-2.12,12.27Z"/>
    <path class="cls-1" d="M837.78,312.93h-5.38l-2.21,12.63h-3.84l5.4-31.22,8.26.02c2.69.09,4.7.95,6.05,2.59,1.34,1.64,1.88,3.85,1.61,6.6-.18,1.99-.81,3.7-1.86,5.15s-2.5,2.57-4.31,3.39l3.62,13.19-.02.28h-4.12l-3.2-12.63ZM832.97,309.56l4.44.04c1.36-.03,2.56-.39,3.59-1.1,1.04-.7,1.8-1.69,2.31-2.98.5-1.28.67-2.67.52-4.18-.11-1.09-.5-1.95-1.17-2.59-.67-.64-1.58-.98-2.76-1.04l-4.87-.02-2.06,11.86Z"/>
    <path class="cls-1" d="M867.77,325.98c-2.6-.06-4.64-.99-6.1-2.79-1.47-1.8-2.22-4.27-2.26-7.4-.01-1.04.04-2.08.17-3.11l.9-5.83c.71-4.15,2.12-7.36,4.21-9.64,2.09-2.28,4.73-3.39,7.92-3.31,2.44.06,4.38.87,5.81,2.42s2.26,3.77,2.49,6.65l.06,1.16c0,1.06-.06,2.1-.19,3.13l-.92,5.94c-.73,4.16-2.13,7.35-4.2,9.56-2.07,2.21-4.7,3.29-7.89,3.22ZM876.97,307.18l.19-2.08c.14-2.5-.19-4.39-1.01-5.67-.81-1.28-2.07-1.95-3.77-2-2.13-.07-3.88.69-5.25,2.28-1.37,1.59-2.32,3.96-2.85,7.11l-.92,6.2-.15,1.74c-.14,2.44.2,4.34,1.02,5.67.82,1.34,2.08,2.03,3.79,2.09,4.19.13,6.84-2.79,7.96-8.77l1.01-6.56Z"/>
    <path class="cls-1" d="M912.36,321.65c-.6.81-1.29,1.51-2.08,2.08-2.12,1.54-4.65,2.29-7.61,2.25-2.67-.03-4.77-.94-6.3-2.72-1.53-1.79-2.34-4.2-2.42-7.25-.03-1.04.02-2.09.15-3.13l.96-6.16c.66-4.12,1.97-7.28,3.92-9.48,2.06-2.3,4.78-3.42,8.17-3.35,2.69.09,4.74.97,6.17,2.66,1.42,1.69,2.1,4,2.05,6.95l-3.82-.02c0-2.12-.4-3.68-1.19-4.67-.79-.99-1.93-1.51-3.4-1.55-2.13-.1-3.87.61-5.23,2.13-1.36,1.52-2.3,3.93-2.83,7.25l-.99,6.55-.13,1.76v1.48c.23,4.06,1.91,6.12,5.04,6.18,1.13.03,2.14-.14,3.02-.5.89-.36,1.76-.88,2.64-1.55l1.31-7.19h-5.55l.6-3.37h9.33l-1.8,11.64Z"/>
    <path class="cls-1" d="M938.13,312.93h-5.38l-2.21,12.63h-3.84l5.4-31.22,8.26.02c2.69.09,4.7.95,6.05,2.59,1.34,1.64,1.88,3.85,1.61,6.6-.18,1.99-.81,3.7-1.86,5.15s-2.5,2.57-4.31,3.39l3.62,13.19-.02.28h-4.12l-3.2-12.63ZM933.33,309.56l4.44.04c1.36-.03,2.56-.39,3.59-1.1,1.04-.7,1.8-1.69,2.31-2.98.5-1.28.67-2.67.52-4.18-.11-1.09-.5-1.95-1.17-2.59-.67-.64-1.58-.98-2.76-1.04l-4.87-.02-2.06,11.86Z"/>
    <path class="cls-1" d="M973.91,317.39h-10.21l-3.77,8.17h-4.07l15.16-31.22h3.3l4.35,31.22h-3.8l-.96-8.17ZM965.29,314.02h8.21l-1.65-14.15-6.56,14.15Z"/>
    <path class="cls-1" d="M1002.12,294.33l3.47,25.43,12.31-25.43h5.02l-5.43,31.22h-3.84l2.15-12.35,2.38-11.6-11.99,23.95h-2.94l-3.69-24.45-1.82,12.48-2.06,11.97h-3.84l5.4-31.22h4.87Z"/>
  </g>
</svg>